<svg width="528" height="528" viewBox="0 0 528 528" fill="none" xmlns="http://www.w3.org/2000/svg">
<path d="M528 264C528 409.8 409.8 528 264 528C118.2 528 0 409.8 0 264C0 118.2 118.2 0 264 0C409.8 0 528 118.2 528 264Z" fill="#2051AC"/>
<path d="M164 325.184V62H363.672V325.184L336.714 352.142H197.812L164 325.184Z" fill="white"/>
<path d="M192.479 385.796C199.558 363.971 201.437 361.089 197.47 350.686C248.555 350.686 351.505 332.937 340.461 347.142C329.416 361.347 333.146 380.703 337.748 389.671C285.539 394.155 187.976 399.68 192.479 385.796Z" fill="white"/>
<path d="M344.939 421.136C344.939 466.054 308.526 464.086 263.608 464.086C218.69 464.086 182.277 466.054 182.277 421.136C182.277 376.218 218.69 339.805 263.608 339.805C308.526 339.805 344.939 376.218 344.939 421.136Z" fill="white"/>
<path d="M210.605 62V313.718L234.822 325.184H296.049L317.524 313.718V62" stroke="#2051AC" stroke-width="9.13832"/>
<path d="M239.848 327.011C243.199 339.043 245.879 366.032 229.796 377.729C213.712 389.426 226.75 441.24 233.451 465" stroke="#2051AC" stroke-width="9.13832"/>
<path d="M294.083 327.011C290.732 339.043 288.051 366.032 304.135 377.729C320.218 389.426 307.181 441.24 300.479 465" stroke="#2051AC" stroke-width="9.13832"/>
</svg>
